<svg width="220" height="42" viewBox="0 0 220 42" fill="none" xmlns="http://www.w3.org/2000/svg">
  <rect width="220" height="42" rx="21" fill="white" fill-opacity="0"/>
  <path d="M17 29V13h4.3l5.2 9.2L31.7 13H36v16h-4v-9.1l-4 7.1h-2.9l-4-7.1V29h-4.1Z" fill="#007A4D"/>
  <path d="M44.8 29.3c-1.7 0-3.1-.4-4.2-1.3-1-.9-1.6-2.1-1.6-3.6 0-1.6.6-2.8 1.8-3.7 1.2-.9 2.8-1.3 4.9-1.3h2.1v-.3c0-.8-.2-1.4-.7-1.8-.5-.4-1.2-.6-2.2-.6-1.3 0-2.6.4-3.9 1.1l-1.4-2.8c1.8-1 3.8-1.5 6-1.5 2 0 3.5.5 4.6 1.4 1.1 1 1.6 2.3 1.6 4.1V29h-3.7v-1.3c-.8 1.1-2 1.6-3.7 1.6Zm1.3-2.8c.7 0 1.2-.2 1.7-.6.4-.4.7-.9.7-1.5v-.7h-1.6c-2 0-3 .6-3 1.8 0 .4.2.8.5 1.1.4.3.9.4 1.7.4Z" fill="#007A4D"/>
  <path d="M58.4 29V17.2h-4.3v-3.3h12.7v3.3h-4.3V29h-4.1Z" fill="#007A4D"/>
  <path d="M68.1 29V13.9h4.1V29h-4.1Z" fill="#007A4D"/>
  <path d="M75.4 29V13.9h4.1l6.6 8.7v-8.7h4.1V29h-3.8l-6.9-9.1V29h-4.1Z" fill="#007A4D"/>
  <path d="M98.4 29.3c-2.3 0-4.1-.7-5.6-2.2-1.4-1.5-2.1-3.4-2.1-5.7 0-2.3.7-4.2 2.2-5.7 1.5-1.5 3.4-2.2 5.7-2.2 1.4 0 2.8.3 4 .8 1.2.5 2.2 1.3 2.9 2.2l-2.7 2.4c-1-1.2-2.3-1.8-4-1.8-1.2 0-2.2.4-3 1.2-.8.8-1.2 1.8-1.2 3.1 0 1.3.4 2.3 1.2 3.1.8.8 1.8 1.2 3 1.2 1.8 0 3.1-.6 4.1-1.9l2.7 2.4c-.7 1-1.7 1.7-2.9 2.3-1.2.5-2.6.8-4.3.8Z" fill="#007A4D"/>
  <path d="M113.3 29V13.9h4.1v11.7h7.3V29h-11.4Z" fill="#007A4D"/>
  <path d="M126.3 29V13.9h11.6v3.2h-7.6v2.7h6.9v3.1h-6.9v2.9h7.8V29h-11.8Z" fill="#007A4D"/>
  <circle cx="150" cy="21" r="13" stroke="#007A4D" stroke-width="3"/>
  <path d="M144 21.2l4.3 4.3 7.6-8.1" stroke="#007A4D" stroke-width="3" stroke-linecap="round" stroke-linejoin="round"/>
  <path d="M169 27V15h2.9l3.5 6.2 3.5-6.2h2.9v12H179v-6.8l-2.7 4.9h-1.8l-2.7-4.9V27H169Z" fill="#007A4D"/>
  <path d="M186 27V15h3.1v12H186Z" fill="#007A4D"/>
  <path d="M191.9 27V15h3.1l5 6.9V15h3.1v12h-2.9l-5.3-7.2V27h-3Z" fill="#007A4D"/>
</svg>
